<?xml version="1.0" encoding="UTF-8" standalone="no"?>
<!DOCTYPE svg PUBLIC "-//W3C//DTD SVG 1.1//EN"
 "http://www.w3.org/Graphics/SVG/1.1/DTD/svg11.dtd">
<!-- Generated by graphviz version 2.50.0 (0)
 -->
<!-- Title: G Pages: 1 -->
<svg width="399pt" height="585pt"
 viewBox="0.00 0.00 479.00 702.00" xmlns="http://www.w3.org/2000/svg" xmlns:xlink="http://www.w3.org/1999/xlink">
<g id="graph0" class="graph" transform="scale(0.83 0.83) rotate(0) translate(4 698)">
<title>G</title>
<polygon fill="white" stroke="transparent" points="-4,4 -4,-698 475,-698 475,4 -4,4"/>
<!-- 2825882572928 -->
<g id="node1" class="node">
<title>2825882572928</title>
<polygon fill="none" stroke="black" points="168,-657.5 168,-693.5 303,-693.5 303,-657.5 168,-657.5"/>
<text text-anchor="middle" x="197" y="-671.8" font-family="Times New Roman,serif" font-size="14.00">input_1</text>
<polyline fill="none" stroke="black" points="226,-657.5 226,-693.5 "/>
<text text-anchor="middle" x="264.5" y="-671.8" font-family="Times New Roman,serif" font-size="14.00">InputLayer</text>
</g>
<!-- 2826083000272 -->
<g id="node2" class="node">
<title>2826083000272</title>
<polygon fill="none" stroke="black" points="163,-584.5 163,-620.5 308,-620.5 308,-584.5 163,-584.5"/>
<text text-anchor="middle" x="210.5" y="-598.8" font-family="Times New Roman,serif" font-size="14.00">dense1_input1</text>
<polyline fill="none" stroke="black" points="258,-584.5 258,-620.5 "/>
<text text-anchor="middle" x="283" y="-598.8" font-family="Times New Roman,serif" font-size="14.00">Dense</text>
</g>
<!-- 2825882572928&#45;&gt;2826083000272 -->
<g id="edge1" class="edge">
<title>2825882572928&#45;&gt;2826083000272</title>
<path fill="none" stroke="black" d="M235.5,-657.31C235.5,-649.29 235.5,-639.55 235.5,-630.57"/>
<polygon fill="black" stroke="black" points="239,-630.53 235.5,-620.53 232,-630.53 239,-630.53"/>
</g>
<!-- 2826082999504 -->
<g id="node4" class="node">
<title>2826082999504</title>
<polygon fill="none" stroke="black" points="163,-511.5 163,-547.5 308,-547.5 308,-511.5 163,-511.5"/>
<text text-anchor="middle" x="210.5" y="-525.8" font-family="Times New Roman,serif" font-size="14.00">dense2_input1</text>
<polyline fill="none" stroke="black" points="258,-511.5 258,-547.5 "/>
<text text-anchor="middle" x="283" y="-525.8" font-family="Times New Roman,serif" font-size="14.00">Dense</text>
</g>
<!-- 2826083000272&#45;&gt;2826082999504 -->
<g id="edge2" class="edge">
<title>2826083000272&#45;&gt;2826082999504</title>
<path fill="none" stroke="black" d="M235.5,-584.31C235.5,-576.29 235.5,-566.55 235.5,-557.57"/>
<polygon fill="black" stroke="black" points="239,-557.53 235.5,-547.53 232,-557.53 239,-557.53"/>
</g>
<!-- 2826082998064 -->
<g id="node3" class="node">
<title>2826082998064</title>
<polygon fill="none" stroke="black" points="331,-511.5 331,-547.5 466,-547.5 466,-511.5 331,-511.5"/>
<text text-anchor="middle" x="360" y="-525.8" font-family="Times New Roman,serif" font-size="14.00">input_2</text>
<polyline fill="none" stroke="black" points="389,-511.5 389,-547.5 "/>
<text text-anchor="middle" x="427.5" y="-525.8" font-family="Times New Roman,serif" font-size="14.00">InputLayer</text>
</g>
<!-- 2826081855472 -->
<g id="node6" class="node">
<title>2826081855472</title>
<polygon fill="none" stroke="black" points="326,-438.5 326,-474.5 471,-474.5 471,-438.5 326,-438.5"/>
<text text-anchor="middle" x="373.5" y="-452.8" font-family="Times New Roman,serif" font-size="14.00">dense1_input2</text>
<polyline fill="none" stroke="black" points="421,-438.5 421,-474.5 "/>
<text text-anchor="middle" x="446" y="-452.8" font-family="Times New Roman,serif" font-size="14.00">Dense</text>
</g>
<!-- 2826082998064&#45;&gt;2826081855472 -->
<g id="edge3" class="edge">
<title>2826082998064&#45;&gt;2826081855472</title>
<path fill="none" stroke="black" d="M398.5,-511.31C398.5,-503.29 398.5,-493.55 398.5,-484.57"/>
<polygon fill="black" stroke="black" points="402,-484.53 398.5,-474.53 395,-484.53 402,-484.53"/>
</g>
<!-- 2826082980144 -->
<g id="node7" class="node">
<title>2826082980144</title>
<polygon fill="none" stroke="black" points="163,-438.5 163,-474.5 308,-474.5 308,-438.5 163,-438.5"/>
<text text-anchor="middle" x="210.5" y="-452.8" font-family="Times New Roman,serif" font-size="14.00">dense3_input1</text>
<polyline fill="none" stroke="black" points="258,-438.5 258,-474.5 "/>
<text text-anchor="middle" x="283" y="-452.8" font-family="Times New Roman,serif" font-size="14.00">Dense</text>
</g>
<!-- 2826082999504&#45;&gt;2826082980144 -->
<g id="edge4" class="edge">
<title>2826082999504&#45;&gt;2826082980144</title>
<path fill="none" stroke="black" d="M235.5,-511.31C235.5,-503.29 235.5,-493.55 235.5,-484.57"/>
<polygon fill="black" stroke="black" points="239,-484.53 235.5,-474.53 232,-484.53 239,-484.53"/>
</g>
<!-- 2826082998208 -->
<g id="node5" class="node">
<title>2826082998208</title>
<polygon fill="none" stroke="black" points="5,-511.5 5,-547.5 140,-547.5 140,-511.5 5,-511.5"/>
<text text-anchor="middle" x="34" y="-525.8" font-family="Times New Roman,serif" font-size="14.00">input_3</text>
<polyline fill="none" stroke="black" points="63,-511.5 63,-547.5 "/>
<text text-anchor="middle" x="101.5" y="-525.8" font-family="Times New Roman,serif" font-size="14.00">InputLayer</text>
</g>
<!-- 2826082301264 -->
<g id="node8" class="node">
<title>2826082301264</title>
<polygon fill="none" stroke="black" points="0,-438.5 0,-474.5 145,-474.5 145,-438.5 0,-438.5"/>
<text text-anchor="middle" x="47.5" y="-452.8" font-family="Times New Roman,serif" font-size="14.00">dense1_input3</text>
<polyline fill="none" stroke="black" points="95,-438.5 95,-474.5 "/>
<text text-anchor="middle" x="120" y="-452.8" font-family="Times New Roman,serif" font-size="14.00">Dense</text>
</g>
<!-- 2826082998208&#45;&gt;2826082301264 -->
<g id="edge5" class="edge">
<title>2826082998208&#45;&gt;2826082301264</title>
<path fill="none" stroke="black" d="M72.5,-511.31C72.5,-503.29 72.5,-493.55 72.5,-484.57"/>
<polygon fill="black" stroke="black" points="76,-484.53 72.5,-474.53 69,-484.53 76,-484.53"/>
</g>
<!-- 2826081945488 -->
<g id="node9" class="node">
<title>2826081945488</title>
<polygon fill="none" stroke="black" points="244,-365.5 244,-401.5 421,-401.5 421,-365.5 244,-365.5"/>
<text text-anchor="middle" x="291" y="-379.8" font-family="Times New Roman,serif" font-size="14.00">concatenate_6</text>
<polyline fill="none" stroke="black" points="338,-365.5 338,-401.5 "/>
<text text-anchor="middle" x="379.5" y="-379.8" font-family="Times New Roman,serif" font-size="14.00">Concatenate</text>
</g>
<!-- 2826081855472&#45;&gt;2826081945488 -->
<g id="edge6" class="edge">
<title>2826081855472&#45;&gt;2826081945488</title>
<path fill="none" stroke="black" d="M382.52,-438.31C374.34,-429.5 364.22,-418.63 355.24,-408.96"/>
<polygon fill="black" stroke="black" points="357.7,-406.47 348.33,-401.53 352.57,-411.24 357.7,-406.47"/>
</g>
<!-- 2826082980144&#45;&gt;2826081945488 -->
<g id="edge7" class="edge">
<title>2826082980144&#45;&gt;2826081945488</title>
<path fill="none" stroke="black" d="M258.98,-438.31C271.61,-429.07 287.36,-417.54 301.03,-407.53"/>
<polygon fill="black" stroke="black" points="303.23,-410.26 309.24,-401.53 299.1,-404.61 303.23,-410.26"/>
</g>
<!-- 2826083094336 -->
<g id="node10" class="node">
<title>2826083094336</title>
<polygon fill="none" stroke="black" points="49,-365.5 49,-401.5 226,-401.5 226,-365.5 49,-365.5"/>
<text text-anchor="middle" x="96" y="-379.8" font-family="Times New Roman,serif" font-size="14.00">concatenate_7</text>
<polyline fill="none" stroke="black" points="143,-365.5 143,-401.5 "/>
<text text-anchor="middle" x="184.5" y="-379.8" font-family="Times New Roman,serif" font-size="14.00">Concatenate</text>
</g>
<!-- 2826082980144&#45;&gt;2826083094336 -->
<g id="edge8" class="edge">
<title>2826082980144&#45;&gt;2826083094336</title>
<path fill="none" stroke="black" d="M211.78,-438.31C199.02,-429.07 183.11,-417.54 169.29,-407.53"/>
<polygon fill="black" stroke="black" points="171.16,-404.56 161,-401.53 167.05,-410.23 171.16,-404.56"/>
</g>
<!-- 2826082301264&#45;&gt;2826083094336 -->
<g id="edge9" class="edge">
<title>2826082301264&#45;&gt;2826083094336</title>
<path fill="none" stroke="black" d="M88.23,-438.31C96.3,-429.5 106.26,-418.63 115.11,-408.96"/>
<polygon fill="black" stroke="black" points="117.74,-411.27 121.91,-401.53 112.58,-406.54 117.74,-411.27"/>
</g>
<!-- 2826081946736 -->
<g id="node11" class="node">
<title>2826081946736</title>
<polygon fill="none" stroke="black" points="253,-292.5 253,-328.5 398,-328.5 398,-292.5 253,-292.5"/>
<text text-anchor="middle" x="294.5" y="-306.8" font-family="Times New Roman,serif" font-size="14.00">left_dropout</text>
<polyline fill="none" stroke="black" points="336,-292.5 336,-328.5 "/>
<text text-anchor="middle" x="367" y="-306.8" font-family="Times New Roman,serif" font-size="14.00">Dropout</text>
</g>
<!-- 2826081945488&#45;&gt;2826081946736 -->
<g id="edge10" class="edge">
<title>2826081945488&#45;&gt;2826081946736</title>
<path fill="none" stroke="black" d="M330.81,-365.31C330.01,-357.29 329.05,-347.55 328.17,-338.57"/>
<polygon fill="black" stroke="black" points="331.64,-338.14 327.18,-328.53 324.68,-338.82 331.64,-338.14"/>
</g>
<!-- 2826082178528 -->
<g id="node12" class="node">
<title>2826082178528</title>
<polygon fill="none" stroke="black" points="75,-292.5 75,-328.5 228,-328.5 228,-292.5 75,-292.5"/>
<text text-anchor="middle" x="120.5" y="-306.8" font-family="Times New Roman,serif" font-size="14.00">right_dropout</text>
<polyline fill="none" stroke="black" points="166,-292.5 166,-328.5 "/>
<text text-anchor="middle" x="197" y="-306.8" font-family="Times New Roman,serif" font-size="14.00">Dropout</text>
</g>
<!-- 2826083094336&#45;&gt;2826082178528 -->
<g id="edge11" class="edge">
<title>2826083094336&#45;&gt;2826082178528</title>
<path fill="none" stroke="black" d="M140.89,-365.31C142.47,-357.29 144.39,-347.55 146.16,-338.57"/>
<polygon fill="black" stroke="black" points="149.64,-339.02 148.14,-328.53 142.77,-337.66 149.64,-339.02"/>
</g>
<!-- 2826082177664 -->
<g id="node13" class="node">
<title>2826082177664</title>
<polygon fill="none" stroke="black" points="245,-219.5 245,-255.5 390,-255.5 390,-219.5 245,-219.5"/>
<text text-anchor="middle" x="292.5" y="-233.8" font-family="Times New Roman,serif" font-size="14.00">dense2_input2</text>
<polyline fill="none" stroke="black" points="340,-219.5 340,-255.5 "/>
<text text-anchor="middle" x="365" y="-233.8" font-family="Times New Roman,serif" font-size="14.00">Dense</text>
</g>
<!-- 2826081946736&#45;&gt;2826082177664 -->
<g id="edge12" class="edge">
<title>2826081946736&#45;&gt;2826082177664</title>
<path fill="none" stroke="black" d="M323.56,-292.31C322.66,-284.29 321.56,-274.55 320.55,-265.57"/>
<polygon fill="black" stroke="black" points="324.02,-265.07 319.42,-255.53 317.06,-265.86 324.02,-265.07"/>
</g>
<!-- 2826082301168 -->
<g id="node14" class="node">
<title>2826082301168</title>
<polygon fill="none" stroke="black" points="81,-219.5 81,-255.5 226,-255.5 226,-219.5 81,-219.5"/>
<text text-anchor="middle" x="128.5" y="-233.8" font-family="Times New Roman,serif" font-size="14.00">dense2_input3</text>
<polyline fill="none" stroke="black" points="176,-219.5 176,-255.5 "/>
<text text-anchor="middle" x="201" y="-233.8" font-family="Times New Roman,serif" font-size="14.00">Dense</text>
</g>
<!-- 2826082178528&#45;&gt;2826082301168 -->
<g id="edge13" class="edge">
<title>2826082178528&#45;&gt;2826082301168</title>
<path fill="none" stroke="black" d="M151.98,-292.31C152.21,-284.29 152.48,-274.55 152.74,-265.57"/>
<polygon fill="black" stroke="black" points="156.24,-265.62 153.02,-255.53 149.24,-265.43 156.24,-265.62"/>
</g>
<!-- 2826082092512 -->
<g id="node15" class="node">
<title>2826082092512</title>
<polygon fill="none" stroke="black" points="196.5,-146.5 196.5,-182.5 272.5,-182.5 272.5,-146.5 196.5,-146.5"/>
<text text-anchor="middle" x="214.5" y="-160.8" font-family="Times New Roman,serif" font-size="14.00">add</text>
<polyline fill="none" stroke="black" points="232.5,-146.5 232.5,-182.5 "/>
<text text-anchor="middle" x="252.5" y="-160.8" font-family="Times New Roman,serif" font-size="14.00">Add</text>
</g>
<!-- 2826082177664&#45;&gt;2826082092512 -->
<g id="edge14" class="edge">
<title>2826082177664&#45;&gt;2826082092512</title>
<path fill="none" stroke="black" d="M297.41,-219.31C286.81,-210.24 273.63,-198.98 262.09,-189.1"/>
<polygon fill="black" stroke="black" points="264.28,-186.37 254.41,-182.53 259.73,-191.69 264.28,-186.37"/>
</g>
<!-- 2826082301168&#45;&gt;2826082092512 -->
<g id="edge15" class="edge">
<title>2826082301168&#45;&gt;2826082092512</title>
<path fill="none" stroke="black" d="M173.11,-219.31C183.36,-210.33 196.06,-199.19 207.25,-189.39"/>
<polygon fill="black" stroke="black" points="209.86,-191.75 215.07,-182.53 205.25,-186.49 209.86,-191.75"/>
</g>
<!-- 2826082161904 -->
<g id="node16" class="node">
<title>2826082161904</title>
<polygon fill="none" stroke="black" points="166.5,-73.5 166.5,-109.5 302.5,-109.5 302.5,-73.5 166.5,-73.5"/>
<text text-anchor="middle" x="209.5" y="-87.8" font-family="Times New Roman,serif" font-size="14.00">final_dense1</text>
<polyline fill="none" stroke="black" points="252.5,-73.5 252.5,-109.5 "/>
<text text-anchor="middle" x="277.5" y="-87.8" font-family="Times New Roman,serif" font-size="14.00">Dense</text>
</g>
<!-- 2826082092512&#45;&gt;2826082161904 -->
<g id="edge16" class="edge">
<title>2826082092512&#45;&gt;2826082161904</title>
<path fill="none" stroke="black" d="M234.5,-146.31C234.5,-138.29 234.5,-128.55 234.5,-119.57"/>
<polygon fill="black" stroke="black" points="238,-119.53 234.5,-109.53 231,-119.53 238,-119.53"/>
</g>
<!-- 2826082126384 -->
<g id="node17" class="node">
<title>2826082126384</title>
<polygon fill="none" stroke="black" points="166.5,-0.5 166.5,-36.5 302.5,-36.5 302.5,-0.5 166.5,-0.5"/>
<text text-anchor="middle" x="209.5" y="-14.8" font-family="Times New Roman,serif" font-size="14.00">final_dense2</text>
<polyline fill="none" stroke="black" points="252.5,-0.5 252.5,-36.5 "/>
<text text-anchor="middle" x="277.5" y="-14.8" font-family="Times New Roman,serif" font-size="14.00">Dense</text>
</g>
<!-- 2826082161904&#45;&gt;2826082126384 -->
<g id="edge17" class="edge">
<title>2826082161904&#45;&gt;2826082126384</title>
<path fill="none" stroke="black" d="M234.5,-73.31C234.5,-65.29 234.5,-55.55 234.5,-46.57"/>
<polygon fill="black" stroke="black" points="238,-46.53 234.5,-36.53 231,-46.53 238,-46.53"/>
</g>
</g>
</svg>
